<svg width="24" height="24" viewBox="0 0 24 24" xmlns="http://www.w3.org/2000/svg">
<path fill-rule="evenodd" clip-rule="evenodd" d="M23 6.5C22.9999 5.83696 22.7366 5.20106 22.268 4.732C21.7989 4.26337 21.163 4.0001 20.5 4H2.5C1.83696 4.0001 1.20106 4.26337 0.732 4.732C0.263374 5.20106 9.59269e-05 5.83696 0 6.5V18.5C0 19.163 0.2635 19.799 0.732 20.268C1.20106 20.7366 1.83696 20.9999 2.5 21H20.5C21.163 20.9999 21.7989 20.7366 22.268 20.268C22.7366 19.7989 22.9999 19.163 23 18.5V6.5ZM21.8535 19.1465C21.9499 18.9446 22 18.7237 22 18.5V6.5C22 6.27627 21.9499 6.05538 21.8535 5.8535L13.268 14.4395C12.7989 14.908 12.163 15.1711 11.5 15.1711C10.837 15.1711 10.2011 14.908 9.732 14.4395L1.1465 5.8535C1.05006 6.05538 1.00001 6.27627 1 6.5V18.5C1.00001 18.7237 1.05006 18.9446 1.1465 19.1465L6.732 13.5605C6.82591 13.4669 6.95313 13.4143 7.08575 13.4143C7.21837 13.4143 7.34559 13.4669 7.4395 13.5605C7.6345 13.756 7.6345 14.0725 7.4395 14.268L1.8535 19.8535C2.05538 19.9499 2.27627 20 2.5 20H20.5C20.7237 20 20.9446 19.9499 21.1465 19.8535L15.5605 14.268C15.4669 14.1741 15.4143 14.0469 15.4143 13.9143C15.4143 13.7816 15.4669 13.6544 15.5605 13.5605C15.6544 13.4669 15.7816 13.4143 15.9142 13.4143C16.0469 13.4143 16.1741 13.4669 16.268 13.5605L21.8535 19.1465ZM21.1465 5.1465C20.9446 5.05006 20.7237 5.00001 20.5 5H2.5C2.27627 5.00001 2.05538 5.05006 1.8535 5.1465L10.4395 13.732C10.5786 13.8715 10.7439 13.9821 10.9259 14.0576C11.1079 14.1331 11.303 14.172 11.5 14.172C11.697 14.172 11.8921 14.1331 12.0741 14.0576C12.2561 13.9821 12.4214 13.8715 12.5605 13.732L21.1465 5.1465Z" />
</svg>
