<svg width="24" height="24" viewBox="0 0 24 24" xmlns="http://www.w3.org/2000/svg">
<path fill-rule="evenodd" clip-rule="evenodd" d="M12 12.5H13C15.2543 12.5 17.4163 13.3955 19.0104 14.9896C20.6045 16.5837 21.5 18.7457 21.5 21V22C21.5 22.1326 21.4473 22.2598 21.3536 22.3536C21.2598 22.4473 21.1326 22.5 21 22.5H3C2.86739 22.5 2.74021 22.4473 2.64645 22.3536C2.55268 22.2598 2.5 22.1326 2.5 22V21C2.50003 19.2966 3.01186 17.6325 3.96911 16.2235C4.92637 14.8144 6.28489 13.7256 7.8685 13.098C7.99183 13.0491 8.09069 12.9533 8.14334 12.8315C8.19599 12.7098 8.19812 12.5721 8.14925 12.4487C8.10038 12.3254 8.00453 12.2266 7.88277 12.1739C7.76101 12.1213 7.62333 12.1191 7.5 12.168C5.72997 12.8693 4.21152 14.0863 3.14164 15.6612C2.07176 17.2361 1.49982 19.0961 1.5 21V22C1.5 22.3978 1.65804 22.7794 1.93934 23.0607C2.22064 23.342 2.60218 23.5 3 23.5H21C21.3978 23.5 21.7794 23.342 22.0607 23.0607C22.342 22.7794 22.5 22.3978 22.5 22V21C22.5 18.8242 21.7531 16.7143 20.3841 15.023C19.0151 13.3318 17.1071 12.1618 14.979 11.7085C15.8968 11.1835 16.6596 10.4252 17.1901 9.5106C17.7206 8.59595 18 7.55736 18 6.5C18 3.1885 15.3115 0.5 12 0.5C8.6885 0.5 6 3.1885 6 6.5C6 9.8115 8.6885 12.5 12 12.5ZM12 1.5C14.7595 1.5 17 3.7405 17 6.5C17 9.2595 14.7595 11.5 12 11.5C9.2405 11.5 7 9.2595 7 6.5C7 3.7405 9.2405 1.5 12 1.5Z" />
</svg>
