<svg width="24" height="24" viewBox="0 0 24 24" xmlns="http://www.w3.org/2000/svg">
<path fill-rule="evenodd" clip-rule="evenodd" d="M4.5 8H6H6.5H7H8H8.5H9H14H14.5H15H16V5.5C16 4.30653 15.5259 3.16193 14.682 2.31802C13.8381 1.47411 12.6935 1 11.5 1C10.3065 1 9.16193 1.47411 8.31802 2.31802C7.47411 3.16193 7 4.30653 7 5.5H6.5H6C6 4.04131 6.57946 2.64236 7.61091 1.61091C8.64236 0.579463 10.0413 0 11.5 0C12.9587 0 14.3576 0.579463 15.3891 1.61091C16.4205 2.64236 17 4.04131 17 5.5V8H18.5C19.163 8.0001 19.7989 8.26337 20.268 8.732C20.7366 9.20106 20.9999 9.83696 21 10.5V20.5C20.9999 21.163 20.7366 21.7989 20.268 22.268C19.7989 22.7366 19.163 22.9999 18.5 23H4.5C3.83696 22.9999 3.20106 22.7366 2.732 22.268C2.2635 21.799 2 21.163 2 20.5V10.5C2.0001 9.83696 2.26337 9.20106 2.732 8.732C3.20106 8.26337 3.83696 8.0001 4.5 8ZM20 20.5V10.5C20 10.102 19.842 9.7205 19.5605 9.4395C19.2795 9.158 18.898 9 18.5 9H4.5C4.30302 8.99993 4.10795 9.03872 3.92598 9.11413C3.744 9.18955 3.57869 9.30011 3.4395 9.4395C3.158 9.7205 3 10.102 3 10.5V20.5C2.99993 20.697 3.03872 20.892 3.11413 21.074C3.18955 21.256 3.30011 21.4213 3.4395 21.5605C3.57869 21.6999 3.744 21.8105 3.92598 21.8859C4.10795 21.9613 4.30302 22.0001 4.5 22H18.5C18.697 22.0001 18.892 21.9613 19.074 21.8859C19.256 21.8105 19.4213 21.6999 19.5605 21.5605C19.842 21.2795 20 20.898 20 20.5Z" />
</svg>
