<svg width="24" height="24" viewBox="0 0 24 24"
  xmlns="http://www.w3.org/2000/svg">
  <path fill-rule="evenodd" clip-rule="evenodd" d="M12 0.5C10.8065 0.5 9.66193 0.974106 8.81802 1.81802C7.97411 2.66193 7.5 3.80653 7.5 5V6.5H5C4.33696 6.5 3.70107 6.76339 3.23223 7.23223C2.76339 7.70107 2.5 8.33696 2.5 9V19C2.5 20.1935 2.97411 21.3381 3.81802 22.182C4.66193 23.0259 5.80653 23.5 7 23.5H17C18.1935 23.5 19.3381 23.0259 20.182 22.182C21.0259 21.3381 21.5 20.1935 21.5 19V9C21.5 8.33696 21.2366 7.70107 20.7678 7.23223C20.2989 6.76339 19.663 6.5 19 6.5H16.5V5C16.5 3.80653 16.0259 2.66193 15.182 1.81802C14.3381 0.974106 13.1935 0.5 12 0.5ZM12 1.5C11.0717 1.5 10.1815 1.86875 9.52513 2.52513C8.86875 3.1815 8.5 4.07174 8.5 5V11C8.5 11.1326 8.44732 11.2598 8.35355 11.3536C8.25979 11.4473 8.13261 11.5 8 11.5C7.86739 11.5 7.74021 11.4473 7.64645 11.3536C7.55268 11.2598 7.5 11.1326 7.5 11V7.5H5C4.60218 7.5 4.22064 7.65804 3.93934 7.93934C3.65804 8.22064 3.5 8.60218 3.5 9V19C3.5004 19.9281 3.86927 20.8181 4.52557 21.4744C5.18186 22.1307 6.07186 22.4996 7 22.5H17C17.4596 22.5001 17.9148 22.4096 18.3395 22.2337C18.7641 22.0578 19.15 21.8 19.475 21.475C19.8 21.15 20.0578 20.7641 20.2337 20.3395C20.4096 19.9148 20.5001 19.4596 20.5 19V9C20.5 8.60218 20.342 8.22064 20.0607 7.93934C19.7794 7.65804 19.3978 7.5 19 7.5H16.5V11C16.5 11.1326 16.4473 11.2598 16.3536 11.3536C16.2598 11.4473 16.1326 11.5 16 11.5C15.8674 11.5 15.7402 11.4473 15.6464 11.3536C15.5527 11.2598 15.5 11.1326 15.5 11V7.5H10C9.86739 7.5 9.74021 7.44732 9.64645 7.35355C9.55268 7.25979 9.5 7.13261 9.5 7C9.5 6.86739 9.55268 6.74021 9.64645 6.64645C9.74021 6.55268 9.86739 6.5 10 6.5H15.5V5C15.5 4.07174 15.1313 3.1815 14.4749 2.52513C13.8185 1.86875 12.9283 1.5 12 1.5Z" />
</svg>
