<svg width="32" height="32" viewBox="0 0 32 32" xmlns="http://www.w3.org/2000/svg">
<path fill-rule="evenodd" clip-rule="evenodd" d="M15.9987 0.666626C14.4074 0.666626 12.8813 1.29877 11.7561 2.42399C10.6308 3.5492 9.9987 5.07533 9.9987 6.66663V8.66663H6.66536C5.78131 8.66663 4.93346 9.01782 4.30834 9.64294C3.68322 10.2681 3.33203 11.1159 3.33203 12V25.3333C3.33203 26.9246 3.96417 28.4507 5.08939 29.5759C6.21461 30.7012 7.74073 31.3333 9.33203 31.3333H22.6654C24.2567 31.3333 25.7828 30.7012 26.908 29.5759C28.0332 28.4507 28.6654 26.9246 28.6654 25.3333V12C28.6654 11.1159 28.3142 10.2681 27.6891 9.64294C27.0639 9.01782 26.2161 8.66663 25.332 8.66663H21.9987V6.66663C21.9987 5.07533 21.3666 3.5492 20.2413 2.42399C19.1161 1.29877 17.59 0.666626 15.9987 0.666626ZM15.9987 1.99996C14.761 1.99996 13.574 2.49162 12.6989 3.36679C11.8237 4.24196 11.332 5.42895 11.332 6.66663V14.6666C11.332 14.8434 11.2618 15.013 11.1368 15.138C11.0117 15.2631 10.8422 15.3333 10.6654 15.3333C10.4886 15.3333 10.319 15.2631 10.194 15.138C10.0689 15.013 9.9987 14.8434 9.9987 14.6666V9.99996H6.66536C6.13493 9.99996 5.62622 10.2107 5.25115 10.5857C4.87608 10.9608 4.66536 11.4695 4.66536 12V25.3333C4.66589 26.5708 5.15773 27.7575 6.03278 28.6325C6.90784 29.5076 8.09452 29.9994 9.33203 30H22.6654C23.2782 30 23.8851 29.8794 24.4513 29.6449C25.0176 29.4104 25.532 29.0667 25.9654 28.6333C26.3987 28.2 26.7425 27.6855 26.977 27.1193C27.2115 26.553 27.3321 25.9462 27.332 25.3333V12C27.332 11.4695 27.1213 10.9608 26.7462 10.5857C26.3712 10.2107 25.8625 9.99996 25.332 9.99996H21.9987V14.6666C21.9987 14.8434 21.9285 15.013 21.8034 15.138C21.6784 15.2631 21.5088 15.3333 21.332 15.3333C21.1552 15.3333 20.9857 15.2631 20.8606 15.138C20.7356 15.013 20.6654 14.8434 20.6654 14.6666V9.99996H13.332C13.1552 9.99996 12.9857 9.92972 12.8606 9.8047C12.7356 9.67967 12.6654 9.5101 12.6654 9.33329C12.6654 9.15648 12.7356 8.98691 12.8606 8.86189C12.9857 8.73686 13.1552 8.66663 13.332 8.66663H20.6654V6.66663C20.6654 5.42895 20.1737 4.24196 19.2985 3.36679C18.4234 2.49162 17.2364 1.99996 15.9987 1.99996Z" />
</svg>
