<svg width="32" height="32" viewBox="0 0 32 32" xmlns="http://www.w3.org/2000/svg">
<path fill-rule="evenodd" clip-rule="evenodd" d="M16 16.6666H17.3333C20.3391 16.6666 23.2218 17.8607 25.3472 19.9861C27.4726 22.1115 28.6667 24.9942 28.6667 28V29.3333C28.6667 29.5101 28.5964 29.6797 28.4714 29.8047C28.3464 29.9297 28.1768 30 28 30H4C3.82319 30 3.65362 29.9297 3.5286 29.8047C3.40357 29.6797 3.33333 29.5101 3.33333 29.3333V28C3.33337 25.7287 4.01581 23.5099 5.29215 21.6312C6.5685 19.7526 8.37986 18.3007 10.4913 17.464C10.6558 17.3988 10.7876 17.271 10.8578 17.1087C10.928 16.9463 10.9308 16.7627 10.8657 16.5983C10.8005 16.4339 10.6727 16.302 10.5104 16.2318C10.348 16.1616 10.1644 16.1588 10 16.224C7.63996 17.159 5.61537 18.7817 4.18886 20.8816C2.76235 22.9814 1.99975 25.4614 2 28V29.3333C2 29.8637 2.21071 30.3724 2.58579 30.7475C2.96086 31.1226 3.46957 31.3333 4 31.3333H28C28.5304 31.3333 29.0391 31.1226 29.4142 30.7475C29.7893 30.3724 30 29.8637 30 29.3333V28C30 25.0988 29.0041 22.2856 27.1788 20.0307C25.3535 17.7757 22.8095 16.2156 19.972 15.6113C21.1957 14.9113 22.2128 13.9003 22.9201 12.6808C23.6275 11.4612 24 10.0764 24 8.66663C24 4.25129 20.4153 0.666626 16 0.666626C11.5847 0.666626 8 4.25129 8 8.66663C8 13.082 11.5847 16.6666 16 16.6666ZM16 1.99996C19.6793 1.99996 22.6667 4.98729 22.6667 8.66663C22.6667 12.346 19.6793 15.3333 16 15.3333C12.3207 15.3333 9.33333 12.346 9.33333 8.66663C9.33333 4.98729 12.3207 1.99996 16 1.99996Z" />
</svg>
