<svg width="24" height="25" viewBox="0 0 24 25" fill="none" xmlns="http://www.w3.org/2000/svg">
<g clip-path="url(#clip0_1983_5278)">
<path d="M19.3846 11.8846H12.6156V5.11538C12.6156 4.95217 12.5507 4.79565 12.4353 4.68024C12.3199 4.56484 12.1634 4.5 12.0002 4.5C11.837 4.5 11.6805 4.56484 11.5651 4.68024C11.4497 4.79565 11.3848 4.95217 11.3848 5.11538V11.8846H4.61577C4.45257 11.8846 4.29604 11.9495 4.18064 12.0649C4.06524 12.1803 4.0004 12.3368 4.0004 12.5C3.99737 12.58 4.01151 12.6597 4.04188 12.7337C4.07224 12.8078 4.11813 12.8745 4.17645 12.9293C4.23476 12.9841 4.30415 13.0258 4.37993 13.0515C4.45572 13.0772 4.53614 13.0864 4.61577 13.0785H11.3848V19.8846C11.3848 20.0478 11.4497 20.2044 11.5651 20.3198C11.6805 20.4352 11.837 20.5 12.0002 20.5C12.1634 20.5 12.3199 20.4352 12.4353 20.3198C12.5507 20.2044 12.6156 20.0478 12.6156 19.8846V13.1154H19.3846C19.5478 13.1154 19.7044 13.0506 19.8198 12.9351C19.9352 12.8197 20 12.6632 20 12.5C20 12.3368 19.9352 12.1803 19.8198 12.0649C19.7044 11.9495 19.5478 11.8846 19.3846 11.8846Z" fill="black"/>
</g>
<defs>
<clipPath id="clip0_1983_5278">
<rect width="24" height="24" fill="white" transform="translate(0 0.5)"/>
</clipPath>
</defs>
</svg>
