<svg width="32" height="32" viewBox="0 0 32 32" xmlns="http://www.w3.org/2000/svg">
<g clip-path="url(#clip0_1338_160)">
<path fill-rule="evenodd" clip-rule="evenodd" d="M21.2973 23.1813L23.254 25.138L23.7253 25.6093L24.1966 26.0806L27.7253 29.6093C27.8483 29.7366 27.9954 29.8382 28.1581 29.9081C28.3208 29.978 28.4957 30.0148 28.6728 30.0163C28.8498 30.0178 29.0254 29.9841 29.1892 29.9171C29.3531 29.85 29.502 29.751 29.6272 29.6258C29.7524 29.5006 29.8514 29.3518 29.9184 29.1879C29.9854 29.024 30.0192 28.8485 30.0176 28.6714C30.0161 28.4944 29.9793 28.3194 29.9094 28.1568C29.8396 27.9941 29.738 27.847 29.6106 27.724L26.082 24.1953L25.6106 23.724L25.1393 23.2526L24.5506 22.6633C24.4292 22.5376 24.362 22.3692 24.3635 22.1944C24.365 22.0196 24.4352 21.8524 24.5588 21.7287C24.6824 21.6051 24.8496 21.535 25.0244 21.5335C25.1992 21.532 25.3676 21.5992 25.4933 21.7206L30.5533 26.7813C31.594 27.822 31.594 29.5113 30.5533 30.552C29.5126 31.5926 27.8233 31.5926 26.7826 30.552L20.2046 23.9746C18.2253 25.256 15.866 26 13.3346 26C6.34397 26 0.667969 20.324 0.667969 13.3333C0.667969 6.34263 6.34397 0.666626 13.3346 0.666626C20.3253 0.666626 26.0013 6.34263 26.0013 13.3333C26.0013 17.3086 24.166 20.858 21.2973 23.1813ZM24.668 13.3333C24.668 7.07796 19.59 1.99996 13.3346 1.99996C7.0793 1.99996 2.0013 7.07796 2.0013 13.3333C2.0013 19.5886 7.0793 24.6666 13.3346 24.6666C19.59 24.6666 24.668 19.5886 24.668 13.3333Z" />
</g>
<defs>
<clipPath id="clip0_1338_160">
<rect width="32" height="32" fill="white"/>
</clipPath>
</defs>
</svg>
