<svg width="16" height="16" viewBox="0 0 16 16" fill="none" xmlns="http://www.w3.org/2000/svg">
<path fill-rule="evenodd" clip-rule="evenodd" d="M6.46959 1.68044L4.81977 5.3175L0.994735 5.83062C0.780573 5.85923 0.57861 5.95074 0.412369 6.09448C0.246128 6.23823 0.122452 6.4283 0.0557455 6.64256C-0.0109608 6.85681 -0.0179515 7.08643 0.0355876 7.30467C0.0891267 7.52291 0.200992 7.72078 0.358154 7.87525L3.16374 10.6361L2.44922 14.5903C2.40919 14.8117 2.43025 15.0403 2.50993 15.2497C2.58961 15.459 2.72464 15.6405 2.89931 15.7729C3.07397 15.9053 3.28108 15.9832 3.49654 15.9976C3.712 16.0119 3.92693 15.9622 4.11633 15.854L7.4998 13.9234L10.8833 15.854C11.0727 15.9622 11.2876 16.0119 11.5031 15.9976C11.7185 15.9832 11.9256 15.9053 12.1003 15.7729C12.275 15.6405 12.41 15.459 12.4897 15.2497C12.5694 15.0403 12.5904 14.8117 12.5504 14.5903L11.8359 10.6361L14.6414 7.87525C14.7987 7.72084 14.9107 7.52296 14.9643 7.30469C15.018 7.08641 15.011 6.85672 14.9443 6.64241C14.8775 6.42811 14.7538 6.238 14.5875 6.09427C14.4212 5.95054 14.2191 5.8591 14.0049 5.83062L10.1798 5.3175L8.53 1.68044C8.43766 1.47688 8.29181 1.30487 8.10944 1.18441C7.92706 1.06395 7.71565 1 7.4998 1C7.28395 1 7.07254 1.06395 6.89016 1.18441C6.70779 1.30487 6.56194 1.47688 6.46959 1.68044ZM7.05889 1.97171C7.09843 1.88461 7.16086 1.81101 7.23891 1.75947C7.31696 1.70794 7.40743 1.68058 7.4998 1.68058C7.59217 1.68058 7.68264 1.70794 7.76069 1.75947C7.83874 1.81101 7.90117 1.88461 7.94071 1.97171L9.66652 5.77685C9.68989 5.82843 9.72531 5.87304 9.76954 5.90658C9.81376 5.94011 9.86537 5.9615 9.91959 5.96876L13.9217 6.50569C14.0134 6.51775 14.0999 6.55679 14.1711 6.61824C14.2424 6.6797 14.2953 6.76103 14.3239 6.85274C14.3525 6.94446 14.3554 7.04275 14.3324 7.13615C14.3094 7.22955 14.2614 7.31418 14.194 7.38017L11.2586 10.269C11.2189 10.3081 11.1892 10.357 11.1723 10.4113C11.1554 10.4655 11.1519 10.5233 11.1621 10.5793L11.9096 14.7166C11.9267 14.8113 11.9177 14.9091 11.8837 14.9987C11.8496 15.0883 11.7918 15.1659 11.7171 15.2226C11.6423 15.2792 11.5537 15.3126 11.4615 15.3187C11.3693 15.3248 11.2774 15.3035 11.1963 15.2572L7.65634 13.2368C7.60831 13.2094 7.55449 13.1951 7.4998 13.1951C7.44511 13.1951 7.39129 13.2094 7.34326 13.2368L3.80326 15.2572C3.72223 15.3035 3.63027 15.3248 3.53807 15.3187C3.44588 15.3126 3.35726 15.2792 3.28252 15.2226C3.20779 15.1659 3.15002 15.0883 3.11594 14.9987C3.08186 14.9091 3.07288 14.8113 3.09004 14.7166L3.8375 10.5793C3.84767 10.5233 3.84416 10.4655 3.82729 10.4113C3.81042 10.357 3.78074 10.3081 3.74097 10.269L0.805587 7.38017C0.738192 7.31418 0.690189 7.22955 0.667188 7.13615C0.644188 7.04275 0.647139 6.94446 0.675697 6.85274C0.704256 6.76103 0.757242 6.6797 0.828463 6.61824C0.899684 6.55679 0.986199 6.51775 1.0779 6.50569L5.08001 5.96876C5.13424 5.9615 5.18584 5.94011 5.23006 5.90658C5.27429 5.87304 5.30972 5.82843 5.33308 5.77685L7.05889 1.97171Z" fill="#FDBE87"/>
</svg>
